<?xml version="1.0" encoding="utf-8"?>
<!-- Generator: Adobe Illustrator 20.1.0, SVG Export Plug-In . SVG Version: 6.00 Build 0)  -->
<!DOCTYPE svg PUBLIC "-//W3C//DTD SVG 1.1//EN" "http://www.w3.org/Graphics/SVG/1.1/DTD/svg11.dtd">
<svg version="1.1" id="Layer_1" xmlns="http://www.w3.org/2000/svg" xmlns:xlink="http://www.w3.org/1999/xlink" x="0px" y="0px"
	 viewBox="0 0 600 600" style="enable-background:new 0 0 600 600;" xml:space="preserve">
<style type="text/css">
	.st0{fill:#79E8F8;}
	.st1{fill:#DEF9FD;}
	.st2{fill:#84EDFB;}
	.st3{fill:#D0F8FE;}
	.st4{fill:#4CE0F5;}
	.st5{fill:#BEF2FA;}
	.st6{fill:#5BE7FA;}
	.st7{fill:#A2F1FC;}
	.st8{fill:#1FD8F3;}
	.st9{fill:#9DECF8;}
	.st10{fill:#32E0F9;}
	.st11{fill:#73EAFB;}
</style>
<g>
	<g id="XMLID_3_">
		<g>
			<polygon class="st0" points="342.1,0 319.6,294.9 245.7,170.6 			"/>
			<polygon class="st1" points="342.1,0 245.7,170.6 159.8,177 			"/>
			<polygon class="st2" points="245.7,170.6 319.6,294.9 3.3,600 186.8,275.1 			"/>
			<polygon class="st3" points="245.7,170.6 186.8,275.1 3.3,600 159.8,177 			"/>
		</g>
		<g>
		</g>
	</g>
	<g id="XMLID_2_">
		<g>
			<polygon class="st4" points="485.8,108.1 387.8,387.2 348.6,248 			"/>
			<polygon class="st5" points="485.8,108.1 348.6,248 264,231.9 			"/>
			<polygon class="st6" points="348.6,248 387.8,387.2 3.3,600 264.6,333.6 			"/>
			<polygon class="st7" points="348.6,248 264.6,333.6 3.3,600 264,231.9 			"/>
		</g>
		<g>
		</g>
	</g>
	<g id="XMLID_1_">
		<g>
			<polygon class="st8" points="596.7,249.8 429.8,493.9 427.9,349.4 			"/>
			<polygon class="st9" points="596.7,249.8 427.9,349.4 427.9,349.4 350.4,311.9 			"/>
			<polygon class="st10" points="427.9,349.4 429.8,493.9 3.3,600 324.6,410.3 427.9,349.4 			"/>
			<polygon class="st11" points="427.9,349.4 324.6,410.3 3.3,600 350.4,311.9 			"/>
		</g>
		<g>
		</g>
	</g>
</g>
</svg>
