<?xml version="1.0" encoding="utf-8"?>
<!-- Generator: Adobe Illustrator 20.1.0, SVG Export Plug-In . SVG Version: 6.00 Build 0)  -->
<!DOCTYPE svg PUBLIC "-//W3C//DTD SVG 1.1//EN" "http://www.w3.org/Graphics/SVG/1.1/DTD/svg11.dtd">
<svg version="1.1" id="Layer_1" xmlns="http://www.w3.org/2000/svg" xmlns:xlink="http://www.w3.org/1999/xlink" x="0px" y="0px"
	 viewBox="0 0 300 250" style="enable-background:new 0 0 300 250;" xml:space="preserve">
<style type="text/css">
	.st0{fill:#808080;}
</style>
<path class="st0" d="M288.7,6.5c2.1-1.5,4.2-3,6.3-4.5C137.2,2.9,8.8,110.9,5,244.8c1.5,1,3.1,2.1,4.6,3.2c0.1-1,0.1-2.1,0.2-3.1
	c6.3-41.5,77.3-77.7,181.6-98.5c0.4-1.6,0.9-3.1,1.4-4.7c-25.9,5.1-50.1,11.3-72.1,18.3C66.5,177.4,30,199.2,14.1,223
	c19.1-60.6,96.1-109.2,199.4-130.6c0.9-1.7,1.9-3.4,2.9-5.1c-38.6,7.7-74.4,19.2-105.4,34.5c-50.5,24.7-84.2,56.7-98.3,92.4
	C33,99,148.5,9.9,288.7,6.5z"/>
</svg>
