<?xml version="1.0" standalone="no"?>
<!DOCTYPE svg PUBLIC "-//W3C//DTD SVG 20010904//EN"
 "http://www.w3.org/TR/2001/REC-SVG-20010904/DTD/svg10.dtd">
<svg version="1.0" xmlns="http://www.w3.org/2000/svg"
 width="700.000000pt" height="700.000000pt" viewBox="0 0 700.000000 700.000000"
 preserveAspectRatio="xMidYMid meet">
<metadata>
Created by potrace 1.11, written by Peter Selinger 2001-2013
</metadata>
<g transform="translate(0.000000,700.000000) scale(0.100000,-0.100000)"
fill="#000000" stroke="none">
<path d="M3932 6943 c-28 -27 -172 -167 -322 -313 -150 -146 -307 -299 -350
-340 -42 -41 -194 -188 -336 -326 -142 -139 -295 -287 -339 -329 -153 -148
-638 -620 -678 -660 -22 -22 -46 -55 -54 -75 -8 -19 -18 -44 -22 -55 -5 -11
-53 -139 -106 -285 -54 -146 -133 -359 -175 -475 -43 -115 -101 -273 -130
-350 -28 -77 -63 -171 -77 -210 -14 -38 -29 -79 -34 -90 -5 -11 -31 -83 -60
-160 -28 -77 -67 -183 -86 -235 -19 -52 -57 -156 -84 -230 -27 -74 -53 -144
-59 -155 -5 -11 -29 -76 -54 -145 -24 -69 -95 -260 -156 -425 -61 -165 -136
-367 -167 -450 -106 -289 -125 -341 -168 -455 -24 -63 -78 -209 -121 -325 -42
-116 -90 -246 -106 -290 -17 -44 -41 -111 -54 -150 -14 -38 -29 -79 -34 -90
-30 -64 -99 -268 -94 -277 4 -6 2 -8 -3 -5 -6 4 -13 -4 -16 -18 -3 -20 -1 -24
12 -21 17 6 616 155 641 161 8 2 133 33 277 69 145 36 273 67 285 70 13 2 122
29 243 60 121 31 233 59 249 62 16 3 32 7 36 9 3 2 17 6 31 9 13 3 44 10 69
17 25 6 52 12 60 14 8 2 53 13 100 25 47 12 92 23 100 25 8 2 152 38 320 80
168 42 312 78 320 80 8 2 317 78 685 170 369 92 677 168 686 170 15 3 46 11
139 36 62 16 484 120 510 125 14 2 36 8 50 13 14 5 51 15 83 22 33 7 67 22 78
33 11 12 170 242 354 511 183 270 343 504 355 520 12 17 62 89 110 160 107
158 150 220 430 630 121 176 224 327 230 335 5 8 28 42 51 75 23 33 103 150
177 260 74 110 138 202 141 205 14 12 82 122 78 126 -3 3 -220 -50 -483 -116
-264 -67 -487 -123 -497 -125 -10 -2 -27 -7 -37 -10 -10 -3 -27 -8 -37 -10
-10 -2 -110 -27 -223 -55 -113 -28 -213 -53 -223 -55 -10 -2 -27 -7 -37 -10
-10 -3 -27 -8 -37 -10 -10 -2 -117 -28 -237 -59 -121 -31 -221 -54 -224 -52
-2 2 26 87 61 188 80 224 195 554 249 708 22 63 42 122 45 130 3 8 7 20 9 25
1 6 19 55 39 110 20 55 45 125 55 155 10 30 42 120 70 200 28 80 58 163 65
185 7 22 41 119 75 215 69 195 81 232 77 237 -2 2 -53 -24 -113 -58 -60 -34
-134 -75 -164 -92 -30 -16 -75 -42 -100 -55 -25 -14 -92 -51 -150 -83 -58 -32
-110 -63 -117 -69 -7 -5 -17 -10 -23 -10 -6 0 -27 -11 -48 -24 -20 -14 -113
-67 -207 -119 -93 -51 -191 -106 -217 -120 -27 -15 -69 -39 -95 -53 -399 -222
-570 -318 -578 -325 -27 -26 -28 10 -10 231 2 25 7 88 10 140 3 52 8 112 10
132 3 20 7 79 11 130 3 51 7 109 9 128 2 19 7 78 10 130 3 52 8 111 10 130 3
19 7 80 10 135 3 55 8 116 10 135 2 19 7 73 10 120 3 47 8 105 10 130 2 25 6
83 10 130 3 47 8 105 10 130 3 25 7 86 10 135 3 50 8 110 10 135 10 95 15 200
11 200 -3 0 -27 -21 -54 -47z"/>
</g>
</svg>
